<svg xmlns="http://www.w3.org/2000/svg" fill="none" viewBox="0 0 28 27"><path d="M25.364 6.991v3.954c1.518.424 2.636 1.582 2.636 3.28v8.15C28 25.007 25.91 27 23.355 27H4.645C2.09 27 0 25.008 0 22.374v-8.25c0-1.598 1.038-2.77 2.538-3.196V6.991c0-2.634.527-6.281 4.585-6.281h13.534c4.07 0 4.707 3.647 4.707 6.281Z" fill="#fff"/><path d="M25.364 10.815V6.99c0-2.633-.62-6.303-4.69-6.303H7.14c-4.058 0-4.602 3.67-4.602 6.303v3.806C1.038 11.223 0 12.395 0 13.993v8.382C0 25.008 2.09 27 4.645 27h18.71C25.91 27 28 25.008 28 22.374v-8.28c0-1.697-1.118-2.856-2.636-3.28ZM7.14 2.213c-3.121 0-3.121 2.988-3.121 4.778v3.678h.431c1.19 0 2.107.944 2.107 2.17v4.597c0 .971.356 1.56.897 1.94.584.41 1.464.627 2.561.627h7.97c1.097 0 1.977-.218 2.561-.628.541-.38.897-.968.897-1.939v-4.579c0-1.09.884-2.17 2.107-2.17h.334V6.99c0-1.79 0-4.778-3.21-4.778H7.14Zm-3.666 9.981c-1.137 0-1.994.695-1.994 1.8v8.38c0 1.79 1.426 3.1 3.165 3.1h18.71c1.74 0 3.165-1.31 3.165-3.1v-8.28c0-1.187-.938-1.882-2.091-1.882h-.88c-.338 0-.626.328-.626.645v4.579c0 1.442-.571 2.518-1.544 3.2-.929.652-2.148.893-3.394.893h-7.97c-1.246 0-2.465-.24-3.394-.893-.973-.682-1.544-1.758-1.544-3.2V12.84c0-.383-.254-.645-.627-.645h-.976Z" fill="#007B2D" fill-rule="evenodd" clip-rule="evenodd"/></svg>